<?xml version="1.0" standalone="no"?>
<!DOCTYPE svg PUBLIC "-//W3C//DTD SVG 20010904//EN"
 "http://www.w3.org/TR/2001/REC-SVG-20010904/DTD/svg10.dtd">
<svg version="1.0" xmlns="http://www.w3.org/2000/svg"
 width="593.000000pt" height="563.000000pt" viewBox="0 0 593.000000 563.000000"
 preserveAspectRatio="xMidYMid meet">

<g transform="translate(0.000000,563.000000) scale(0.100000,-0.100000)"
fill="#000000" stroke="none">
<path d="M0 2815 l0 -2815 2965 0 2965 0 0 2815 0 2815 -2965 0 -2965 0 0
-2815z m4260 1829 c107 -19 248 -66 320 -106 126 -70 257 -195 377 -358 101
-138 105 -144 114 -213 10 -78 23 -143 45 -232 24 -100 25 -341 1 -455 -79
-373 -304 -676 -603 -811 -116 -53 -256 -80 -444 -86 -183 -6 -287 7 -445 52
-134 39 -176 63 -203 115 -17 33 -22 56 -19 88 4 39 3 43 -22 48 -154 33 -554
215 -608 277 -56 64 -53 142 8 212 35 39 42 35 -106 64 -212 42 -563 83 -865
100 -200 12 -777 15 -831 5 -141 -25 -230 157 -117 238 25 17 40 20 92 16 35
-3 70 -2 78 3 21 11 122 26 268 39 362 32 876 106 1144 166 139 31 363 93 435
121 l24 10 -21 15 c-54 37 -68 131 -29 188 13 20 51 49 92 72 98 53 317 151
398 177 57 19 70 28 81 55 19 46 80 94 171 137 173 80 426 104 665 63z m-3159
-1955 c32 -17 169 -207 162 -225 -11 -30 -42 -7 -110 81 -37 49 -75 91 -83 92
-9 2 -44 -36 -85 -92 -68 -93 -98 -115 -111 -80 -6 15 120 195 155 222 20 15
46 16 72 2z m583 -11 c41 -18 68 -85 64 -160 -3 -60 -4 -63 -28 -63 -24 0 -25
3 -30 75 -3 41 -9 81 -13 88 -6 8 -46 12 -141 12 -110 0 -136 -3 -147 -16 -7
-9 -15 -48 -18 -87 -5 -63 -8 -72 -26 -72 -18 0 -20 8 -23 75 -3 83 17 132 61
150 33 13 271 12 301 -2z m161 2 c11 -17 8 -211 -3 -222 -6 -6 -18 -8 -26 -5
-13 5 -16 26 -16 115 0 60 3 112 7 115 10 10 31 8 38 -3z m147 -30 c105 -80
191 -80 297 1 77 58 82 52 79 -83 -3 -105 -4 -113 -23 -113 -18 0 -20 8 -23
73 -3 67 -12 87 -28 61 -15 -24 -96 -51 -155 -50 -58 0 -139 26 -153 50 -16
26 -25 6 -28 -61 -3 -65 -5 -73 -23 -73 -19 0 -20 8 -23 104 -4 151 -2 153 80
91z m868 25 c10 -12 10 -18 0 -30 -10 -12 -43 -15 -181 -15 -139 0 -170 -3
-183 -16 -20 -19 -21 -64 -2 -90 13 -17 31 -19 193 -24 170 -5 178 -6 178 -25
0 -19 -8 -20 -175 -23 -96 -1 -185 0 -198 3 -34 8 -62 62 -62 119 0 41 5 53
34 82 l34 34 175 0 c143 0 177 -3 187 -15z m-18 -93 c8 -8 7 -16 -2 -27 -11
-13 -37 -15 -164 -13 -138 3 -151 5 -154 22 -2 10 2 23 10 28 18 12 297 3 310
-10z m-1744 -73 c3 -28 -16 -43 -42 -33 -38 14 -22 68 18 62 14 -2 22 -12 24
-29z m1071 -18 c13 -24 -8 -55 -35 -49 -20 3 -30 29 -20 54 8 20 43 17 55 -5z
m-415 -257 c23 -22 20 -60 -6 -78 -19 -14 -71 -16 -361 -16 -375 0 -382 -1
-409 -64 -18 -42 -14 -118 8 -151 34 -51 58 -55 368 -55 280 0 285 0 300 22
11 15 12 26 5 40 -9 17 -26 18 -239 18 -217 0 -231 1 -250 20 -24 24 -25 47
-3 72 15 16 36 18 262 18 226 0 249 -2 278 -20 47 -29 66 -72 61 -142 -3 -47
-10 -64 -33 -88 -16 -17 -45 -35 -64 -40 -49 -13 -615 -13 -664 1 -77 21 -138
111 -145 214 -5 75 9 130 48 183 59 81 57 81 467 82 316 0 364 -2 377 -16z
m1098 -1 c24 -21 23 -48 -2 -73 -19 -19 -33 -20 -432 -20 -369 0 -413 2 -430
17 -20 18 -24 63 -6 81 9 9 119 12 432 12 376 0 421 -2 438 -17z m1104 -9 c16
-24 16 -27 -3 -52 l-20 -27 -412 -3 c-271 -1 -419 1 -431 8 -29 15 -36 57 -15
80 17 19 34 20 441 20 l424 0 16 -26z m296 9 c14 -13 18 -31 18 -95 l0 -78
138 0 c220 0 300 23 468 131 50 33 99 59 109 59 24 0 55 -28 55 -51 0 -28
-135 -133 -221 -171 -36 -16 -36 -22 -1 -37 51 -24 193 -123 208 -146 20 -31
10 -63 -23 -76 -23 -8 -37 -2 -117 50 -172 113 -233 131 -453 131 l-163 0 0
-75 c0 -62 -4 -79 -20 -95 -24 -24 -38 -25 -68 -4 -22 15 -22 19 -22 229 0
181 2 216 16 229 20 21 53 20 76 -1z m-1424 -185 c20 -20 14 -65 -10 -82 -19
-14 -73 -16 -385 -16 l-363 0 0 -28 c0 -15 5 -33 12 -40 9 -9 108 -12 383 -12
357 0 373 -1 390 -20 21 -24 14 -65 -15 -80 -14 -7 -143 -10 -398 -8 -344 3
-380 5 -405 21 -51 33 -67 73 -67 168 0 53 5 90 12 97 17 17 829 17 846 0z
m1096 -4 c23 -22 20 -60 -6 -78 -19 -14 -73 -16 -385 -16 l-363 0 0 -28 c0
-15 5 -33 12 -40 9 -9 108 -12 385 -12 l373 0 16 -25 c15 -23 15 -27 0 -50 -9
-14 -26 -27 -39 -30 -12 -3 -187 -5 -389 -3 -352 3 -368 4 -394 24 -56 41 -69
69 -72 158 -3 67 -1 86 13 99 15 15 57 17 425 17 358 0 411 -2 424 -16z
m-3286 -660 c21 -15 22 -21 22 -169 0 -152 0 -155 -24 -170 -15 -10 -40 -15
-63 -13 l-38 3 0 65 c0 63 1 65 25 65 20 0 26 6 28 28 3 24 0 27 -28 27 -28 0
-31 3 -28 27 2 20 10 29 28 33 16 4 26 14 28 28 3 19 -1 22 -34 22 -50 0 -74
-23 -74 -72 0 -32 -3 -38 -21 -38 -16 0 -20 -5 -17 -27 2 -17 9 -28 18 -28 12
0 15 -14 15 -65 l0 -65 -63 -3 c-46 -2 -71 2 -88 13 -24 15 -24 18 -24 167 0
199 -10 188 174 188 112 0 146 -3 164 -16z m2812 -3 c5 -11 10 -84 10 -165 0
-118 -3 -147 -16 -160 -13 -13 -42 -16 -164 -16 -82 0 -155 3 -164 6 -14 5
-16 30 -16 173 0 92 3 171 7 174 3 4 80 7 169 7 151 0 164 -1 174 -19z m-1450
-118 l1 -58 24 28 c23 25 45 36 45 20 0 -4 -10 -17 -21 -30 l-22 -22 27 -35
c29 -39 31 -46 14 -46 -7 0 -22 14 -33 30 -25 37 -33 38 -37 3 -2 -14 -9 -28
-15 -31 -10 -3 -13 21 -13 97 0 83 3 101 15 101 12 0 15 -13 15 -57z m180 18
l0 -39 29 11 c42 15 71 -11 71 -64 0 -49 -36 -78 -74 -61 -17 7 -27 7 -35 -1
-8 -8 -11 16 -11 91 0 61 4 102 10 102 6 0 10 -18 10 -39z m290 -51 c0 -49 0
-93 1 -97 0 -4 -4 -9 -10 -11 -7 -2 -11 30 -11 97 0 61 4 101 10 101 6 0 10
-37 10 -90z m2408 35 c-3 -61 3 -68 28 -30 9 14 23 25 30 25 20 0 17 -10 -7
-37 l-22 -22 27 -35 c30 -40 32 -46 12 -46 -8 0 -23 14 -33 30 -21 37 -31 38
-35 3 -2 -14 -9 -28 -15 -31 -10 -3 -13 21 -13 97 0 86 2 101 16 101 13 0 15
-10 12 -55z m342 46 c0 -5 -12 -11 -27 -13 -17 -2 -29 -10 -31 -20 -3 -15 4
-18 32 -18 l36 0 0 -70 c0 -40 -4 -70 -10 -70 -6 0 -10 27 -10 60 0 57 -1 60
-25 60 -22 0 -24 -4 -27 -57 -4 -81 -28 -85 -28 -5 0 39 -5 62 -12 66 -10 5
-10 7 0 12 6 3 12 12 12 19 0 23 30 45 61 45 16 0 29 -4 29 -9z m398 -88 c-2
-66 -7 -98 -15 -101 -10 -3 -13 21 -13 97 0 84 3 101 15 101 13 0 15 -15 13
-97z m-4819 35 c-12 -29 -29 -73 -39 -98 -9 -24 -22 -46 -29 -48 -7 -2 -3 18
10 50 12 29 27 70 35 91 17 47 23 57 34 57 6 0 0 -24 -11 -52z m341 37 c0 -8
-7 -15 -15 -15 -16 0 -20 12 -8 23 11 12 23 8 23 -8z m2888 -3 c2 -7 -3 -12
-12 -12 -9 0 -16 7 -16 16 0 17 22 14 28 -4z m1392 3 c0 -8 -7 -15 -15 -15 -8
0 -15 7 -15 15 0 8 7 15 15 15 8 0 15 -7 15 -15z m-1759 -31 c23 -21 31 -57
20 -87 -11 -29 -49 -46 -61 -27 -5 9 -9 9 -14 1 -11 -17 -44 -13 -54 7 -18 35
16 82 60 82 29 0 30 -1 23 -40 -5 -32 -4 -40 8 -40 32 0 36 61 7 90 -46 46
-124 5 -124 -65 0 -48 29 -78 71 -73 38 5 45 -9 9 -18 -28 -7 -81 18 -90 41
-3 9 -6 33 -6 53 1 82 93 129 151 76z m-2747 -26 c9 -13 16 -43 16 -68 l0 -46
-42 2 c-56 2 -55 1 -62 20 -9 24 11 52 44 59 36 8 35 29 -1 32 -42 2 -44 3
-29 13 25 16 58 11 74 -12z m76 10 c0 -9 3 -9 12 0 17 17 44 15 62 -4 20 -20
23 -128 4 -121 -8 2 -12 18 -10 43 4 52 -16 81 -46 65 -18 -10 -22 -21 -22
-61 0 -28 -4 -50 -10 -50 -6 0 -10 30 -10 70 0 40 4 70 10 70 6 0 10 -5 10
-12z m150 -59 c0 -52 -3 -70 -12 -67 -13 5 -24 99 -14 124 14 36 26 9 26 -57z
m60 61 c0 -6 8 -5 20 2 16 10 24 10 40 0 15 -9 26 -10 40 -2 26 14 36 13 54
-6 18 -17 23 -124 6 -124 -5 0 -10 19 -10 43 0 24 -6 52 -14 62 -21 29 -44 4
-48 -51 -4 -63 -22 -59 -28 5 -3 30 -10 56 -16 58 -23 8 -44 -28 -44 -73 0
-24 -4 -44 -10 -44 -6 0 -10 30 -10 70 0 40 4 70 10 70 6 0 10 -5 10 -10z
m294 -6 c9 -8 16 -22 16 -30 0 -8 0 -17 0 -21 0 -5 -21 -10 -47 -13 -45 -5
-46 -6 -28 -23 11 -12 26 -16 41 -13 12 3 25 2 29 -4 11 -17 -47 -24 -74 -9
-19 11 -27 24 -29 51 -5 62 54 101 92 62z m134 4 c9 -9 12 -9 12 0 0 7 5 12
10 12 6 0 10 -32 10 -77 0 -92 -13 -113 -72 -113 -21 0 -38 5 -38 10 0 6 15
10 33 10 34 0 57 15 57 37 0 10 -5 10 -25 1 -19 -9 -29 -8 -50 6 -34 22 -36
87 -3 110 27 19 50 20 66 4z m148 4 c17 -11 36 -51 29 -62 -3 -6 -27 -10 -52
-10 -46 0 -46 0 -28 -20 11 -12 28 -20 39 -19 35 2 42 -1 26 -11 -43 -28 -100
7 -100 60 0 49 51 86 86 62z m150 -17 c24 -37 12 -55 -36 -55 -22 0 -40 -4
-40 -10 0 -16 39 -32 62 -25 15 5 19 3 16 -6 -8 -25 -56 -22 -83 5 -30 31 -32
55 -4 90 26 34 63 34 85 1z m476 8 c10 -9 18 -27 18 -40 0 -21 -4 -23 -45 -23
-25 0 -45 -4 -45 -10 0 -16 39 -32 62 -25 15 5 19 3 16 -6 -8 -26 -56 -22 -84
6 -30 30 -27 68 8 98 25 21 46 22 70 0z m200 0 c10 -9 18 -27 18 -40 0 -21 -4
-23 -45 -23 -25 0 -45 -4 -45 -10 0 -16 39 -32 62 -25 15 5 19 3 16 -6 -8 -26
-56 -22 -84 6 -20 20 -24 32 -19 53 14 58 60 79 97 45z m68 7 c0 -6 10 -5 25
2 18 8 28 8 38 0 10 -9 22 -9 44 0 47 18 63 -1 63 -73 0 -33 -4 -59 -10 -59
-5 0 -10 22 -10 49 0 56 -19 82 -45 61 -10 -8 -15 -30 -15 -62 0 -69 -23 -59
-30 13 -5 51 -8 55 -39 51 -6 -1 -11 -25 -13 -54 -2 -30 -8 -53 -15 -56 -10
-3 -13 15 -13 67 0 41 4 71 10 71 6 0 10 -4 10 -10z m1124 -6 c18 -17 23 -124
6 -124 -5 0 -10 5 -10 10 0 6 -8 5 -20 -2 -25 -16 -54 -1 -58 30 -4 23 31 52
61 52 17 0 17 2 6 16 -8 10 -21 13 -36 9 -22 -5 -31 4 -16 18 12 13 51 7 67
-9z m76 4 c0 -9 3 -9 12 0 17 17 38 15 60 -5 13 -12 18 -30 18 -70 0 -73 -24
-68 -28 6 -5 90 -62 80 -62 -11 0 -32 -4 -48 -11 -46 -9 3 -15 88 -10 133 2
11 21 4 21 -7z m151 -1 c-1 -4 -1 -34 -1 -67 0 -33 -4 -60 -10 -60 -6 0 -10
30 -10 71 0 46 4 69 11 67 6 -2 10 -7 10 -11z m64 3 c5 -8 11 -7 21 1 11 9 20
9 41 0 18 -8 29 -9 37 -1 14 14 41 13 54 -2 15 -19 19 -121 4 -126 -8 -2 -12
12 -12 46 0 32 -5 54 -15 62 -26 21 -45 -5 -45 -61 0 -27 -4 -49 -10 -49 -5 0
-10 22 -10 49 0 91 -56 93 -62 3 -5 -71 -23 -56 -26 21 -3 62 6 84 23 57z
m296 -11 c33 -33 21 -53 -35 -59 -48 -5 -48 -5 -28 -24 15 -13 29 -16 47 -12
14 4 25 2 25 -4 0 -21 -51 -23 -78 -3 -36 26 -40 68 -11 99 28 29 53 30 80 3z
m127 9 c9 -9 12 -9 12 0 0 7 5 12 10 12 6 0 10 -32 10 -77 0 -92 -13 -113 -72
-113 -21 0 -38 5 -38 10 0 6 16 10 35 10 24 0 37 6 45 19 15 29 13 32 -15 19
-19 -9 -29 -8 -50 6 -34 22 -36 87 -3 110 27 19 50 20 66 4z m156 -4 c9 -8 16
-22 16 -30 0 -8 0 -17 0 -21 0 -5 -21 -10 -47 -13 -45 -5 -46 -6 -29 -23 10
-10 28 -17 40 -16 34 2 42 -1 26 -11 -43 -28 -100 7 -100 60 0 55 59 89 94 54z
m138 -1 c10 -9 18 -27 18 -40 0 -21 -4 -23 -45 -23 -25 0 -45 -4 -45 -10 0
-15 39 -32 60 -25 10 3 21 1 25 -4 10 -18 -47 -25 -74 -10 -35 20 -41 79 -12
108 25 25 48 27 73 4z m278 -3 c29 -29 26 -74 -6 -99 -34 -27 -50 -26 -79 4
-30 30 -31 54 -4 89 25 31 61 34 89 6z m278 5 c-1 -5 -8 -9 -15 -7 -46 11 -75
-66 -33 -88 11 -6 25 -8 30 -5 6 3 15 3 21 -1 14 -8 -8 -24 -34 -24 -24 0 -67
44 -67 70 0 31 45 72 76 68 13 -2 23 -7 22 -13z m60 -52 c-2 -42 -8 -68 -15
-71 -10 -3 -13 15 -13 67 0 57 3 71 15 71 13 0 15 -12 13 -67z m116 51 c18
-17 23 -124 6 -124 -5 0 -10 5 -10 10 0 6 -8 5 -20 -2 -25 -16 -54 -1 -58 30
-4 23 31 52 61 52 17 0 17 2 6 16 -8 10 -21 13 -36 9 -24 -6 -33 9 -10 18 24
10 46 7 61 -9z m-3409 -104 c0 -7 -6 -15 -12 -17 -8 -3 -13 4 -13 17 0 13 5
20 13 18 6 -3 12 -11 12 -18z m1193 -340 l-4 -60 33 32 c38 36 58 31 23 -7
l-24 -25 20 -28 c34 -46 36 -52 20 -52 -8 0 -23 14 -33 30 -21 37 -31 38 -35
3 -2 -14 -9 -28 -15 -31 -10 -3 -13 21 -13 97 0 86 2 101 16 101 14 0 16 -10
12 -60z m342 51 c0 -5 -12 -11 -27 -13 -17 -2 -29 -10 -31 -20 -3 -15 4 -18
32 -18 l36 0 0 -70 c0 -84 -18 -94 -22 -12 -3 50 -6 57 -25 60 -22 3 -23 0
-23 -57 0 -48 -3 -61 -15 -61 -12 0 -15 13 -15 59 0 33 -4 61 -9 63 -5 2 2 20
15 41 19 29 31 37 54 37 17 0 30 -4 30 -9z m390 -91 c0 -60 -4 -100 -10 -100
-6 0 -10 40 -10 100 0 60 4 100 10 100 6 0 10 -40 10 -100z m-1590 75 c0 -8
-7 -15 -15 -15 -16 0 -20 12 -8 23 11 12 23 8 23 -8z m1400 -6 c0 -5 -7 -9
-15 -9 -15 0 -20 12 -9 23 8 8 24 -1 24 -14z m-2341 -66 c6 -21 11 -45 11 -52
0 -25 16 1 29 47 15 54 32 50 50 -14 l14 -49 16 50 c14 43 29 61 32 38 2 -22
-36 -123 -46 -123 -7 0 -18 20 -25 45 -7 25 -16 45 -19 45 -4 0 -12 -21 -19
-46 -7 -26 -17 -44 -24 -42 -12 4 -30 50 -43 106 -10 46 12 41 24 -5z m208
-14 c6 -24 12 -46 13 -49 1 -3 9 18 18 45 9 28 22 50 27 50 6 0 17 -22 26 -50
16 -53 23 -51 34 8 7 36 21 55 32 44 9 -10 -38 -138 -50 -134 -6 2 -18 25 -27
51 l-16 48 -15 -48 c-8 -27 -21 -49 -28 -49 -7 0 -22 27 -32 60 -22 71 -23 78
-6 73 6 -3 17 -24 24 -49z m205 -1 l14 -53 18 53 c10 28 22 52 26 52 5 0 15
-19 21 -42 17 -60 26 -66 33 -21 8 45 22 71 32 60 10 -10 -29 -130 -44 -135
-7 -2 -17 15 -24 42 -7 25 -15 46 -19 46 -3 0 -12 -20 -19 -45 -7 -25 -18 -45
-25 -45 -11 0 -45 97 -45 128 0 31 19 7 32 -40z m293 38 c14 -10 19 -28 21
-68 l3 -54 -42 2 c-55 2 -54 2 -61 19 -9 25 4 43 40 55 42 14 39 36 -5 32 -49
-4 -36 21 15 27 5 0 19 -5 29 -13z m107 5 c14 8 26 6 44 -6 21 -13 24 -23 24
-71 0 -71 -24 -70 -28 2 -4 53 -16 68 -44 53 -14 -7 -18 -22 -18 -60 0 -33 -4
-49 -11 -47 -9 3 -14 78 -10 135 1 4 6 2 13 -5 8 -8 17 -8 30 -1z m128 -62 c0
-52 -3 -70 -12 -67 -13 5 -24 99 -14 124 14 36 26 9 26 -57z m60 61 c0 -7 6
-7 20 0 14 7 26 8 39 0 14 -7 27 -7 45 2 42 18 66 -11 66 -79 0 -39 -4 -53
-12 -51 -8 3 -11 20 -10 45 2 27 -2 46 -13 57 -26 26 -45 3 -45 -55 0 -37 -4
-49 -15 -49 -11 0 -15 13 -15 54 0 38 -4 56 -15 60 -25 9 -45 -22 -45 -70 0
-24 -4 -44 -10 -44 -6 0 -10 30 -10 70 0 40 4 70 10 70 6 0 10 -5 10 -10z
m288 -6 c12 -8 22 -26 22 -40 0 -22 -4 -24 -45 -24 -25 0 -45 -4 -45 -9 0 -17
31 -33 55 -29 35 7 42 -10 9 -18 -17 -4 -37 -2 -53 7 -35 20 -41 79 -12 108
25 25 39 26 69 5z m133 6 c13 -7 19 -7 19 0 0 5 5 10 10 10 12 0 14 -149 2
-167 -11 -17 -51 -30 -79 -25 -35 7 -28 22 10 22 34 0 57 15 57 36 0 9 -7 10
-29 1 -25 -9 -33 -8 -50 8 -30 26 -29 89 1 109 26 19 33 19 59 6z m162 -7 c8
-10 17 -27 19 -38 3 -17 -3 -20 -44 -23 -27 -2 -48 -7 -48 -12 0 -13 38 -32
58 -28 9 1 18 -2 20 -7 5 -17 -48 -17 -74 0 -17 11 -24 24 -24 48 0 37 7 49
35 65 28 16 39 15 58 -5z m137 -3 c11 -11 20 -29 20 -40 0 -17 -7 -20 -45 -20
-25 0 -45 -4 -45 -8 0 -17 25 -32 53 -32 16 0 26 -4 22 -10 -11 -17 -64 -11
-85 10 -27 27 -25 66 5 95 29 30 49 31 75 5z m275 -5 c14 -13 25 -33 25 -45 0
-26 -43 -70 -67 -70 -10 0 -29 7 -41 16 -37 26 -26 101 18 117 29 10 41 7 65
-18z m284 16 c9 -6 10 -11 2 -15 -6 -4 -15 -4 -21 -1 -19 12 -50 -15 -50 -44
0 -33 20 -54 48 -49 10 2 21 -1 23 -7 7 -17 -41 -17 -66 -1 -46 30 -41 96 8
116 28 11 39 12 56 1z m61 -67 c0 -50 -3 -64 -15 -64 -12 0 -15 14 -15 63 0
35 3 67 6 70 16 15 24 -9 24 -69z m108 60 c18 -12 22 -25 22 -68 l0 -53 -41 1
c-74 2 -80 57 -10 81 29 9 31 12 18 24 -9 7 -25 10 -37 6 -21 -7 -29 10 -7 18
21 9 32 7 55 -9z m256 10 c9 -3 16 -11 16 -16 0 -6 -7 -7 -16 -4 -23 9 -64
-20 -64 -44 0 -28 29 -52 57 -47 15 3 22 0 20 -7 -6 -18 -46 -19 -73 -2 -34
23 -33 77 2 105 29 23 34 24 58 15z m141 -19 c14 -13 25 -34 25 -46 0 -30 -38
-69 -67 -69 -31 0 -63 34 -63 68 0 32 8 45 35 60 30 17 43 15 70 -13z m97 16
c12 6 25 6 38 -1 14 -8 26 -8 40 0 14 7 26 8 40 0 31 -17 41 -118 13 -128 -9
-2 -13 11 -13 46 0 58 -18 82 -44 57 -10 -10 -16 -33 -16 -61 0 -24 -4 -44
-10 -44 -5 0 -10 22 -10 48 0 55 -14 76 -42 61 -14 -7 -18 -21 -18 -60 0 -36
-4 -49 -12 -47 -8 3 -14 27 -15 64 -1 64 4 81 20 65 7 -7 16 -7 29 0z m-2339
-106 c8 -18 -11 -31 -25 -17 -11 11 -3 32 12 32 4 0 10 -7 13 -15z m1989 -17
c-15 -15 -26 -4 -18 18 5 13 9 15 18 6 9 -9 9 -15 0 -24z"/>
<path d="M3890 4564 c-14 -2 -52 -9 -85 -15 -78 -13 -135 -30 -135 -39 0 -4
12 -10 28 -13 44 -10 835 -435 860 -463 34 -39 30 -98 -9 -135 -56 -52 -63
-50 -493 178 -424 225 -449 234 -487 183 -12 -17 -48 -169 -108 -458 -50 -238
-98 -443 -106 -456 -17 -26 -55 -46 -86 -46 -33 0 -77 31 -94 65 -14 30 -9 56
75 471 50 241 90 442 90 446 0 15 -359 -149 -392 -179 -19 -17 -25 -68 -8 -78
7 -4 252 -55 268 -55 1 0 2 -4 2 -10 0 -5 -19 -14 -42 -20 -24 -7 -81 -29
-128 -50 -237 -105 -632 -204 -1065 -264 -211 -30 -566 -72 -680 -81 -122 -9
-223 -26 -242 -41 -14 -10 -16 -17 -7 -31 10 -17 39 -18 385 -24 206 -4 435
-12 509 -18 342 -28 630 -67 852 -116 65 -14 133 -25 152 -25 30 0 36 -4 50
-41 18 -44 14 -59 -12 -59 -27 0 -117 -56 -135 -84 -41 -61 -20 -82 183 -180
192 -92 336 -145 325 -119 -4 10 -14 51 -22 92 -13 60 -13 89 -5 149 14 100
67 209 126 256 23 20 157 89 297 154 140 66 405 190 589 276 184 87 347 160
361 163 36 7 85 -21 105 -58 20 -39 12 -88 -19 -117 -19 -18 -513 -254 -1025
-490 -68 -31 -139 -70 -159 -86 -90 -74 -97 -218 -17 -338 15 -24 32 -38 45
-38 17 0 19 -3 10 -14 -10 -12 -2 -19 44 -41 97 -48 97 -48 645 209 267 125
495 234 508 242 46 30 13 134 -44 134 -14 0 -199 -81 -411 -181 -426 -199
-426 -199 -477 -138 -34 40 -35 98 -3 133 19 21 448 229 752 364 158 70 286
34 372 -104 9 -15 12 9 12 121 0 164 -16 267 -48 296 -25 23 -26 32 -7 48 12
10 12 16 1 38 -7 14 -11 40 -8 58 7 41 -11 75 -100 193 -182 244 -325 349
-554 408 -80 21 -127 26 -253 29 -85 2 -166 2 -180 -1z m-3 -644 c64 -39 84
-111 49 -178 -35 -67 -124 -92 -186 -50 -46 31 -74 88 -66 133 8 39 49 93 80
105 36 15 90 11 123 -10z"/>
<path d="M913 3494 c-10 -26 11 -49 43 -49 32 0 44 26 24 50 -17 20 -59 19
-67 -1z"/>
<path d="M4430 2740 c-245 -115 -467 -221 -495 -235 l-50 -25 175 4 c206 5
307 25 433 84 139 66 248 161 352 307 45 63 51 75 38 74 -5 0 -208 -94 -453
-209z"/>
<path d="M3351 1356 c-7 -8 -11 -25 -9 -38 2 -18 9 -23 33 -23 28 0 30 3 30
35 0 28 -4 36 -21 38 -11 2 -26 -4 -33 -12z"/>
<path d="M3225 1275 c-24 -24 -31 -57 -19 -90 10 -24 60 -46 89 -39 57 14 75
97 29 133 -35 28 -69 26 -99 -4z"/>
<path d="M3120 1161 l0 -91 155 0 155 0 0 90 c0 88 -1 90 -24 90 -20 0 -24 -6
-30 -39 -8 -50 -53 -91 -102 -91 -47 0 -95 44 -99 90 -2 29 -7 36 -29 38 l-26
3 0 -90z"/>
<path d="M2198 1229 c-25 -14 -24 -65 1 -79 11 -5 22 -10 25 -10 12 0 36 33
36 50 0 18 -25 50 -38 50 -4 0 -15 -5 -24 -11z"/>
<path d="M3571 1198 c-5 -13 -7 -26 -4 -30 9 -17 34 -7 43 18 13 34 13 34 -10
34 -12 0 -24 -9 -29 -22z"/>
<path d="M863 1183 c-15 -5 -17 -29 -4 -37 16 -10 41 5 41 25 0 19 -12 23 -37
12z"/>
<path d="M1431 1227 c-14 -18 -4 -27 31 -27 30 0 35 9 16 28 -16 16 -33 15
-47 -1z"/>
<path d="M1576 1224 c-9 -8 -16 -24 -16 -34 0 -19 25 -50 40 -50 16 0 40 32
40 54 0 42 -36 59 -64 30z"/>
<path d="M1722 1227 c-15 -18 -5 -27 30 -27 23 0 29 4 26 18 -4 21 -41 28 -56
9z"/>
<path d="M1862 1228 c-19 -19 -14 -28 16 -28 35 0 45 9 31 27 -14 16 -31 17
-47 1z"/>
<path d="M2342 1228 c-20 -20 -14 -28 23 -28 19 0 35 4 35 8 0 12 -22 32 -35
32 -6 0 -16 -5 -23 -12z"/>
<path d="M2542 1228 c-19 -19 -14 -28 16 -28 35 0 45 9 31 27 -14 16 -31 17
-47 1z"/>
<path d="M3740 1175 c-10 -12 -10 -19 -1 -28 14 -14 44 2 49 27 4 21 -31 22
-48 1z"/>
<path d="M4323 1233 c-26 -10 -13 -33 18 -33 24 0 30 4 27 17 -3 18 -24 26
-45 16z"/>
<path d="M4456 1224 c-9 -8 -16 -24 -16 -34 0 -19 25 -50 40 -50 15 0 40 31
40 50 0 19 -25 50 -40 50 -5 0 -16 -7 -24 -16z"/>
<path d="M4601 1227 c-14 -18 -4 -27 32 -27 22 0 28 4 23 16 -3 9 -6 18 -6 20
0 10 -39 3 -49 -9z"/>
<path d="M4742 1228 c-20 -20 -14 -28 23 -28 19 0 35 4 35 8 0 12 -22 32 -35
32 -6 0 -16 -5 -23 -12z"/>
<path d="M5012 1228 c-26 -26 -8 -88 25 -88 7 0 20 11 29 25 15 23 15 27 0 50
-18 27 -35 32 -54 13z"/>
<path d="M5480 1175 c-10 -12 -10 -19 -1 -28 14 -14 44 2 49 27 4 21 -31 22
-48 1z"/>
<path d="M2181 721 c-19 -12 -6 -43 16 -39 21 4 31 48 11 48 -7 0 -19 -4 -27
-9z"/>
<path d="M2752 768 c-20 -20 -14 -28 23 -28 19 0 35 4 35 8 0 12 -22 32 -35
32 -6 0 -16 -5 -23 -12z"/>
<path d="M2896 764 c-19 -18 -20 -38 -6 -65 21 -37 70 -13 70 35 0 16 -26 46
-40 46 -5 0 -16 -7 -24 -16z"/>
<path d="M3044 763 c-17 -17 -16 -18 15 -21 40 -4 48 2 31 23 -16 19 -25 19
-46 -2z"/>
<path d="M3182 768 c-20 -20 -14 -28 19 -28 24 0 30 4 27 17 -4 22 -29 28 -46
11z"/>
<path d="M3445 760 c-35 -39 11 -102 50 -70 22 18 19 67 -4 80 -26 13 -25 13
-46 -10z"/>
<path d="M3925 716 c-16 -12 -18 -17 -7 -28 15 -15 47 0 47 22 0 20 -18 22
-40 6z"/>
<path d="M4294 755 c-9 -14 -13 -33 -9 -44 8 -25 41 -37 60 -21 22 18 19 67
-4 80 -27 14 -28 13 -47 -15z"/>
</g>
</svg>
